<svg width="48" height="48" viewBox="0 0 48 48" fill="none" xmlns="http://www.w3.org/2000/svg">
<rect x="47.3197" y="47.3197" width="46.6394" height="46.6394" rx="23.3197" transform="rotate(-180 47.3197 47.3197)" fill="black" fill-opacity="0.08"/>
<rect x="47.3197" y="47.3197" width="46.6394" height="46.6394" rx="23.3197" transform="rotate(-180 47.3197 47.3197)" stroke="#F7F8FA" stroke-width="1.36057"/>
<path fill-rule="evenodd" clip-rule="evenodd" d="M19.0404 36.3738C18.6499 36.7643 18.0168 36.7643 17.6262 36.3738L12.2929 31.0404C11.9024 30.6499 11.9024 30.0167 12.2929 29.6262L17.6262 24.2929C18.0168 23.9024 18.6499 23.9024 19.0404 24.2929C19.431 24.6834 19.431 25.3166 19.0404 25.7071L15.4142 29.3333L35 29.3333C35.5523 29.3333 36 29.781 36 30.3333C36 30.8856 35.5523 31.3333 35 31.3333L15.4142 31.3333L19.0404 34.9595C19.431 35.3501 19.431 35.9832 19.0404 36.3738ZM28.9596 23.7071C28.569 23.3166 28.569 22.6834 28.9596 22.2929L32.5858 18.6667L13 18.6667C12.4477 18.6667 12 18.2189 12 17.6667C12 17.1144 12.4477 16.6667 13 16.6667L32.5858 16.6667L28.9596 13.0404C28.569 12.6499 28.569 12.0167 28.9596 11.6262C29.3501 11.2357 29.9832 11.2357 30.3738 11.6262L35.7071 16.9595C36.0976 17.3501 36.0976 17.9832 35.7071 18.3738L30.3738 23.7071C29.9832 24.0976 29.3501 24.0976 28.9596 23.7071Z" fill="#606D80"/>
</svg>
